<svg width="38" height="40" viewBox="0 0 38 40" fill="none" xmlns="http://www.w3.org/2000/svg">
<g id="ep:arrow-down">
<path id="Vector" d="M24.2029 15.925L17.1897 25.6275L10.1766 15.925C10.0513 15.7513 9.88306 15.6541 9.7079 15.6541C9.53275 15.6541 9.36454 15.7513 9.23924 15.925C9.17857 16.0094 9.13037 16.1101 9.09746 16.2212C9.06456 16.3324 9.04761 16.4517 9.04761 16.5723C9.04761 16.6928 9.06456 16.8122 9.09746 16.9233C9.13037 17.0344 9.17857 17.1351 9.23924 17.2195L16.7 27.5433C16.8311 27.7246 17.0068 27.826 17.1897 27.826C17.3727 27.826 17.5484 27.7246 17.6795 27.5433L25.1403 17.2215C25.2014 17.1371 25.2499 17.0361 25.2831 16.9246C25.3162 16.8131 25.3333 16.6933 25.3333 16.5723C25.3333 16.4512 25.3162 16.3314 25.2831 16.2199C25.2499 16.1084 25.2014 16.0075 25.1403 15.923C25.015 15.7493 24.8467 15.6521 24.6716 15.6521C24.4964 15.6521 24.3282 15.7493 24.2029 15.923V15.925Z" fill="black"/>
</g>
</svg>
