<svg width="60" height="60" viewBox="0 0 60 60" fill="none" xmlns="http://www.w3.org/2000/svg">
<g id="ion:chatbox">
<path id="Vector" d="M16.875 54.375C16.3777 54.375 15.9008 54.1775 15.5492 53.8258C15.1975 53.4742 15 52.9973 15 52.5V45H12.1875C9.9505 44.9975 7.80583 44.1078 6.22403 42.526C4.64223 40.9442 3.75248 38.7995 3.75 36.5625V14.0625C3.75248 11.8255 4.64223 9.68083 6.22403 8.09903C7.80583 6.51723 9.9505 5.62748 12.1875 5.625H47.8125C50.0495 5.62748 52.1942 6.51723 53.776 8.09903C55.3578 9.68083 56.2475 11.8255 56.25 14.0625V36.5625C56.2475 38.7995 55.3578 40.9442 53.776 42.526C52.1942 44.1078 50.0495 44.9975 47.8125 45H28.7977L18.0762 53.9402C17.7388 54.2209 17.3139 54.3746 16.875 54.375Z" fill="#857065"/>
</g>
</svg>
