<svg width="80" height="82" viewBox="0 0 80 82" fill="none" xmlns="http://www.w3.org/2000/svg">
<g id="ion:chatbox">
<path id="Vector" d="M22.5 74.3125C21.837 74.3125 21.2011 74.0425 20.7322 73.562C20.2634 73.0814 20 72.4296 20 71.75V61.5H16.25C13.2673 61.4966 10.4078 60.2806 8.2987 58.1188C6.18964 55.957 5.00331 53.026 5 49.9688V19.2188C5.00331 16.1615 6.18964 13.2305 8.2987 11.0687C10.4078 8.90688 13.2673 7.69089 16.25 7.6875H63.75C66.7327 7.69089 69.5922 8.90688 71.7013 11.0687C73.8104 13.2305 74.9967 16.1615 75 19.2188V49.9688C74.9967 53.026 73.8104 55.957 71.7013 58.1188C69.5922 60.2806 66.7327 61.4966 63.75 61.5H38.3969L24.1016 73.7183C23.6517 74.1018 23.0851 74.312 22.5 74.3125Z" fill="#857065"/>
</g>
</svg>
